<?xml version="1.0" encoding="utf-8"?>
<!-- Generator: Adobe Illustrator 22.0.0, SVG Export Plug-In . SVG Version: 6.00 Build 0)  -->
<svg version="1.1" xmlns="http://www.w3.org/2000/svg" xmlns:xlink="http://www.w3.org/1999/xlink" x="0px" y="0px"
	 viewBox="0 0 283.465 283.465" enable-background="new 0 0 283.465 283.465" xml:space="preserve">
<g id="c1">
	
		<rect x="0" y="0" transform="matrix(-1 4.468769e-11 -4.468769e-11 -1 283.4646 283.4646)" fill="#353333" width="283.465" height="283.465"/>
	
		<rect x="272.211" y="272.211" transform="matrix(-1 4.461175e-11 -4.461175e-11 -1 555.6756 555.6756)" fill="#353333" width="11.254" height="11.254"/>
</g>
<g id="c2">
	
		<rect x="11.339" y="11.34" transform="matrix(-1 4.458466e-11 -4.458466e-11 -1 294.8031 294.8044)" fill="#6A6967" width="272.126" height="272.125"/>
</g>
<g id="c3">
	
		<rect x="38.268" y="38.268" transform="matrix(-1 4.458510e-11 -4.458510e-11 -1 321.7322 321.7321)" fill="#353333" width="245.197" height="245.197"/>
</g>
<g id="c4">
	
		<rect x="51.025" y="51.025" transform="matrix(-1 4.460598e-11 -4.460598e-11 -1 334.4896 334.4896)" fill="#9D9FA2" width="232.44" height="232.44"/>
</g>
<g id="c5">
	<polygon fill="#353333" points="269.291,78.661 269.291,204.803 204.803,204.803 204.803,269.29 78.661,269.29 78.661,78.661 	"/>
</g>
<g id="c6">
	<polygon fill="#6A6967" points="190.63,255.116 190.63,190.63 255.118,190.63 255.118,92.835 92.835,92.835 92.835,255.116 	"/>
</g>
<g id="c7">
	
		<rect x="232.526" y="232.526" transform="matrix(-1 4.456512e-11 -4.456512e-11 -1 515.9905 515.9905)" fill="#353333" width="50.939" height="50.939"/>
</g>
<g id="c8">
	
		<rect x="245.197" y="245.197" transform="matrix(-1 4.439592e-11 -4.439592e-11 -1 528.6616 528.6616)" fill="#6A6967" width="38.268" height="38.268"/>
</g>
<g id="c10">
	
		<rect x="272.211" y="272.211" transform="matrix(-1 4.461175e-11 -4.461175e-11 -1 555.6756 555.6756)" fill="#353333" width="11.254" height="11.254"/>
</g>
</svg>
